# xmcd
#
# Track frame offsets:
# 150
# 12192
# 21830
# 38352
# 55752
# 67480
# 78856
# 90419
# 106137
# 121067
# 133151
# 146143
# 156224
# 166426
# 178110
# 187963
# 197210
# 206634
# 220302
# 231356
#
# Disc length: 3278 seconds
#
#
# Revision: 1
# Processed by: cddbd v1.5.2PL0 Copyright (c) Steve Scherf et al.
# Submitted via: FreeRIP 2.945 
#
DISCID=180ccc14
DTITLE=Classic Country Christmas
DYEAR=2003
DGENRE=Country
TTITLE0=Tammy Wynette - White Christmas
TTITLE1=Elvis Presley - Blue Christmas
TTITLE2=Alabama - Christmas In Dixie
TTITLE3=Dolly Parton - Hard Candy Christmas
TTITLE4=Vince Gill - Santa Claus Is Coming To Town
TTITLE5=Willie Nelson - Pretty Paper
TTITLE6=Johnny Cash - Little Drummer Boy
TTITLE7=The Judds - What Child Is This
TTITLE8=Randy Travis - The Christmas Song
TTITLE9=John Anderson - I'll Be Home For Christmas
TTITLE10=Emmylou Harris - Christmas Times A Coming
TTITLE11=Buck Owens - Santa Looked A Lot Like Daddy
TTITLE12=Alan Jackson - A Holly Jolly Christmas
TTITLE13=Dwight Yoakam - Here Comes Santa Claus
TTITLE14=Bobby Helms with the Anita Kerr Singers - Jingle Bell Rock
TTITLE15=Chet Atkins - Jingle Bells
TTITLE16=Benda Lee - Rockin Around The Christmas Tree
TTITLE17=Ronnie Milsap - Silver Bells
TTITLE18=George Jones - O Come All Ye Faithful
TTITLE19=Jim Reeves - Silent Night
EXTD=Various Artists
EXTT0=
EXTT1=
EXTT2=
EXTT3=
EXTT4=
EXTT5=
EXTT6=
EXTT7=
EXTT8=
EXTT9=
EXTT10=
EXTT11=
EXTT12=
EXTT13=
EXTT14=
EXTT15=
EXTT16=
EXTT17=
EXTT18=
EXTT19=
PLAYORDER=
